<?xml version="1.0" standalone="no"?>
<!DOCTYPE svg PUBLIC "-//W3C//DTD SVG 20010904//EN"
 "http://www.w3.org/TR/2001/REC-SVG-20010904/DTD/svg10.dtd">
<svg version="1.0" xmlns="http://www.w3.org/2000/svg"
 width="700.000000pt" height="700.000000pt" viewBox="0 0 700.000000 700.000000"
 preserveAspectRatio="xMidYMid meet">
<metadata>
Created by potrace 1.14, written by Peter Selinger 2001-2017
</metadata>
<g transform="translate(0.000000,700.000000) scale(0.100000,-0.100000)"
fill="#000000" stroke="none">
<path d="M0 3500 l0 -3500 875 0 875 0 2 2441 3 2441 873 -873 872 -872 873
872 872 873 3 -2441 2 -2441 875 0 875 0 0 3500 0 3500 -875 0 -875 0 0 -437
0 -438 -309 309 -310 310 -565 -565 -566 -566 -565 566 -566 565 -309 -309
-310 -310 0 438 0 437 -875 0 -875 0 0 -3500z"/>
</g>
</svg>
